HIERARCHY
ROOT hip
{
  OFFSET 0 0 0
  CHANNELS 6 Xposition Yposition Zposition Zrotation Yrotation Xrotation
  JOINT abdomen
  {
    OFFSET 0 20.6881 -0.73152
    CHANNELS 3 Zrotation Xrotation Yrotation
    JOINT chest
    {
      OFFSET 0 11.7043 -0.48768
      CHANNELS 3 Zrotation Xrotation Yrotation
      JOINT neck
      {
        OFFSET 0 22.1894 -2.19456
        CHANNELS 3 Zrotation Xrotation Yrotation
        JOINT head
        {
          OFFSET -0.24384 7.07133 1.2192
          CHANNELS 3 Zrotation Xrotation Yrotation
          JOINT leftEye
          {
            OFFSET 4.14528 8.04674 8.04672
            CHANNELS 3 Zrotation Xrotation Yrotation
            End Site
            {
              OFFSET 1 0 0
            }
          }
          JOINT rightEye
          {
            OFFSET -3.6576 8.04674 8.04672
            CHANNELS 3 Zrotation Xrotation Yrotation
            End Site
            {
              OFFSET 1 0 0
            }
          }
        }
      }
      JOINT rCollar
      {
        OFFSET -2.68224 19.2634 -4.8768
        CHANNELS 3 Zrotation Xrotation Yrotation
        JOINT rShldr
        {
          OFFSET -8.77824 -1.95073 1.46304
          CHANNELS 3 Zrotation Xrotation Yrotation
          JOINT rForeArm
          {
            OFFSET -28.1742 -1.7115 0.48768
            CHANNELS 3 Zrotation Xrotation Yrotation
            JOINT rHand
            {
              OFFSET -22.5879 0.773209 7.07136
              CHANNELS 3 Zrotation Xrotation Yrotation
              JOINT rThumb1
              {
                OFFSET -1.2192 -0.487915 3.41376
                CHANNELS 3 Zrotation Xrotation Yrotation
                JOINT rThumb2
                {
                  OFFSET -3.37035 -0.52449 3.41376
                  CHANNELS 3 Zrotation Xrotation Yrotation
                  End Site
                  {
                    OFFSET -1.78271 -1.18214 1.43049
                  }
                }
              }
              JOINT rIndex1
              {
                OFFSET -7.75947 0.938293 5.60832
                CHANNELS 3 Zrotation Xrotation Yrotation
                JOINT rIndex2
                {
                  OFFSET -2.54057 -0.884171 1.56538
                  CHANNELS 3 Zrotation Xrotation Yrotation
                  End Site
                  {
                    OFFSET -1.62519 -0.234802 1.16502
                  }
                }
              }
              JOINT rMid1
              {
                OFFSET -8.24714 1.18213 3.41376
                CHANNELS 3 Zrotation Xrotation Yrotation
                JOINT rMid2
                {
                  OFFSET -3.10165 -0.590103 1.0647
                  CHANNELS 3 Zrotation Xrotation Yrotation
                  End Site
                  {
                    OFFSET -2.48547 -0.328903 0.83742
                  }
                }
              }
              JOINT rRing1
              {
                OFFSET -8.82822 0.546677 1.51678
                CHANNELS 3 Zrotation Xrotation Yrotation
                JOINT rRing2
                {
                  OFFSET -2.60934 -0.819778 -0.0198488
                  CHANNELS 3 Zrotation Xrotation Yrotation
                  End Site
                  {
                    OFFSET -2.33842 -0.294052 0.168128
                  }
                }
              }
              JOINT rPinky1
              {
                OFFSET -8.27202 -0.0477905 -0.4584
                CHANNELS 3 Zrotation Xrotation Yrotation
                JOINT rPinky2
                {
                  OFFSET -1.82734 -0.647385 -0.700984
                  CHANNELS 3 Zrotation Xrotation Yrotation
                  End Site
                  {
                    OFFSET -1.69225 -0.51767 -0.607171
                  }
                }
              }
            }
          }
        }
      }
      JOINT lCollar
      {
        OFFSET 2.68224 19.2634 -4.8768
        CHANNELS 3 Zrotation Xrotation Yrotation
        JOINT lShldr
        {
          OFFSET 8.77824 -1.95073 1.46304
          CHANNELS 3 Zrotation Xrotation Yrotation
          JOINT lForeArm
          {
            OFFSET 28.1742 -1.7115 0.48768
            CHANNELS 3 Zrotation Xrotation Yrotation
            JOINT lHand
            {
              OFFSET 22.5879 0.773209 7.07136
              CHANNELS 3 Zrotation Xrotation Yrotation
              JOINT lThumb1
              {
                OFFSET 1.2192 -0.487915 3.41376
                CHANNELS 3 Zrotation Xrotation Yrotation
                JOINT lThumb2
                {
                  OFFSET 3.37035 -0.52449 3.41376
                  CHANNELS 3 Zrotation Xrotation Yrotation
                  End Site
                  {
                    OFFSET 1.78271 -1.18214 1.43049
                  }
                }
              }
              JOINT lIndex1
              {
                OFFSET 7.75947 0.938293 5.60832
                CHANNELS 3 Zrotation Xrotation Yrotation
                JOINT lIndex2
                {
                  OFFSET 2.54057 -0.884171 1.56538
                  CHANNELS 3 Zrotation Xrotation Yrotation
                  End Site
                  {
                    OFFSET 1.62519 -0.234802 1.16502
                  }
                }
              }
              JOINT lMid1
              {
                OFFSET 8.24714 1.18213 3.41376
                CHANNELS 3 Zrotation Xrotation Yrotation
                JOINT lMid2
                {
                  OFFSET 3.10165 -0.590103 1.0647
                  CHANNELS 3 Zrotation Xrotation Yrotation
                  End Site
                  {
                    OFFSET 2.48547 -0.328903 0.83742
                  }
                }
              }
              JOINT lRing1
              {
                OFFSET 8.82822 0.546677 1.51678
                CHANNELS 3 Zrotation Xrotation Yrotation
                JOINT lRing2
                {
                  OFFSET 2.60934 -0.819778 -0.0198488
                  CHANNELS 3 Zrotation Xrotation Yrotation
                  End Site
                  {
                    OFFSET 2.33842 -0.294052 0.168128
                  }
                }
              }
              JOINT lPinky1
              {
                OFFSET 8.27202 -0.0477905 -0.4584
                CHANNELS 3 Zrotation Xrotation Yrotation
                JOINT lPinky2
                {
                  OFFSET 1.82734 -0.647385 -0.700984
                  CHANNELS 3 Zrotation Xrotation Yrotation
                  End Site
                  {
                    OFFSET 1.69225 -0.51767 -0.607171
                  }
                }
              }
            }
          }
        }
      }
    }
  }
  JOINT rButtock
  {
    OFFSET -8.77824 4.35084 1.2192
    CHANNELS 3 Zrotation Xrotation Yrotation
    JOINT rThigh
    {
      OFFSET 0 -1.70687 -2.19456
      CHANNELS 3 Zrotation Xrotation Yrotation
      JOINT rShin
      {
        OFFSET 0 -36.8199 0.73152
        CHANNELS 3 Zrotation Xrotation Yrotation
        JOINT rFoot
        {
          OFFSET 0.73152 -45.1104 -5.12064
          CHANNELS 3 Zrotation Xrotation Yrotation
          End Site
          {
            OFFSET -1.1221 -3.69964 12.103
          }
        }
      }
    }
  }
  JOINT lButtock
  {
    OFFSET 8.77824 4.35084 1.2192
    CHANNELS 3 Zrotation Xrotation Yrotation
    JOINT lThigh
    {
      OFFSET 0 -1.70687 -2.19456
      CHANNELS 3 Zrotation Xrotation Yrotation
      JOINT lShin
      {
        OFFSET 0 -36.8199 0.73152
        CHANNELS 3 Zrotation Xrotation Yrotation
        JOINT lFoot
        {
          OFFSET -0.73152 -45.1104 -5.12064
          CHANNELS 3 Zrotation Xrotation Yrotation
          End Site
          {
            OFFSET 1.1221 -3.69964 12.103
          }
        }
      }
    }
  }
}
MOTION
Frames:	4
Frame Time:	0.00833333
-11.0751 56.68719999999999 142.283 0.0 -0.0 0.0 -0.0 -4.771896 -180.0 -0.0 -4.771896 180.0 -6.659564 4.665602 -47.378386 7.934662 1.755087 47.528254 0.0 -0.0 -0.0 0.0 -0.0 -0.0 -155.716846 -4.925325 162.135615 -155.826199 -4.270279 161.778275 173.935048 -5.564049 145.093122 178.945315 9.162103 145.318044 -93.743665 37.963835 53.548561 -52.758205 -3.063517 45.604736 -152.464731 -19.226128 121.474002 175.25499 -60.850503 103.627663 2.100045 -6.305437 -1.081362 -166.642108 -5.121916 142.996382 -145.099706 -1.521107 -178.650165 22.267195 31.38233 -5.112412 -119.36047 -34.786365 -117.263242 -21.963827 -41.894421 -24.68479 -4.239307 -44.742767 8.647656 176.583878 -1.549381 -169.194057 77.717611 -76.900206 91.371412 -19.535411 -45.436539 -9.93538 93.743665 37.963835 -53.548561 115.251738 -12.621555 -72.689349 -159.641557 -69.973343 -102.396332 -19.01434 4.051829 -0.666109 -23.903801 -61.333833 -1.399383 175.346711 -31.151449 -140.708229 0.014868 -1.323148 0.415899 0.02535 -63.226408 8.689603 111.059157 -41.159436 109.11664 144.082893 7.529549 143.529327 -0.0 -0.0 -0.0 -0.0 0.0 -0.0 4.143083 0.773657 37.406087 -77.712813 28.61777 12.675945 -0.0 -0.0 -0.0 -0.0 0.0 -0.0 3.117632 1.327455 29.85905 -47.712413 12.509708 -9.903559
-11.0733 56.3349 143.317 0.0 -0.0 0.0 -0.0 -0.0 -0.0 0.0 0.0 -0.0 -8.144362 10.101976 -79.678508 11.382902 6.215336 79.779518 0.0 -0.0 -0.0 0.0 -0.0 -0.0 -142.586389 40.121077 146.977594 22.082363 -5.558969 6.731841 6.326773 39.674838 -35.664265 171.965746 -12.739001 144.335225 1.600551 -1.586397 -0.224241 -124.919053 -16.652698 112.097315 -153.453439 -21.067684 121.744506 -23.5681 51.767674 21.184139 -89.835461 60.702148 81.262754 -87.693954 67.028376 79.831145 -67.6077 -72.074511 -84.373972 -151.63283 -3.323813 166.249627 -20.142617 -33.376681 -19.314272 -158.131273 52.389652 -152.048273 159.220516 -48.028485 -170.415257 164.503651 -3.538009 -157.712414 -164.407446 -10.000403 -153.862363 158.665672 55.54034 -133.904839 93.743665 37.963835 -53.548561 -175.741245 -42.445132 -75.599489 46.208543 39.652969 -36.318179 166.34932 -5.870603 -120.02782 -173.123457 -66.297779 -137.614274 178.066981 -42.300258 -138.801827 0.060484 -3.506676 1.104039 158.223684 42.856107 -162.610582 -15.078433 52.519972 -11.941391 157.955808 36.080779 145.254778 -180.0 75.749642 -0.0 -180.0 73.473292 -180.0 5.025459 -5.947284 123.870029 -1.319393 -7.283167 59.66918 -180.0 75.749642 -0.0 -180.0 73.473292 -180.0 5.864878 -4.414665 123.647879 14.394352 18.625466 49.322579
-11.0705 55.9384 144.292 0.0 -0.0 0.0 -0.0 -0.0 -0.0 0.0 0.0 -0.0 11.359575 6.157081 79.425429 -8.145262 10.039281 -79.321748 -0.0 0.0 -0.0 -0.0 0.0 -0.0 -142.973735 39.431617 147.390037 -152.876061 -8.760784 171.26332 78.083059 -69.871221 51.370984 -160.577044 53.449864 135.383803 93.028426 -51.083891 40.500925 -14.342302 -71.815269 -43.175956 159.641557 -69.973343 102.396332 16.161158 7.85663 1.519939 -160.573436 -6.359341 143.198121 -2.658279 23.016394 5.271902 -69.84025 -72.122743 -86.714575 -155.515166 -29.396555 168.507705 -124.851156 -29.038378 -122.621388 -145.404742 13.353588 -144.31639 159.220516 -48.028485 -170.415257 -1.798516 18.086937 -22.906726 -24.904053 -79.720929 13.329601 -171.896104 -12.944398 -144.31268 0.543938 0.536215 -0.086055 -39.485476 -62.768997 16.976429 5.558526 8.439207 -3.409378 -6.962088 -11.530064 2.677051 125.644075 49.839986 -115.274123 -8.17841 -12.179402 3.818365 145.099706 -1.521107 178.650165 64.337036 -78.277385 96.32409 -17.604334 61.627798 -12.867429 0.398574 -1.587151 3.37462 -180.0 75.749642 -0.0 -180.0 73.473292 -180.0 -5.864878 -4.414665 -123.647879 5.828746 -19.599706 -62.934765 -180.0 75.749642 -0.0 -180.0 73.473292 -180.0 7.26445 -6.891104 98.805537 78.037268 -74.275227 174.254323
-11.0689 55.5198 145.2 0.0 -0.0 0.0 -0.0 -0.0 -0.0 0.0 0.0 -0.0 -8.144362 10.101976 -79.678508 11.382902 6.215336 79.779518 0.0 -0.0 -0.0 0.0 -0.0 -0.0 -142.586389 40.121077 146.977594 -152.013847 -2.481509 171.125775 13.753149 1.600386 -1.535025 -17.517753 45.365511 5.704912 -172.745809 -10.423727 89.92934 -7.813669 -50.091919 4.942475 88.792192 -75.499035 40.049684 99.392206 -57.112561 40.366782 -82.840589 61.110826 74.532293 -13.601232 41.013607 9.250262 -0.000142 -0.018512 -0.005816 -3.391572 29.344359 4.679812 -161.040457 68.917197 -151.098866 -22.156602 -36.019909 -24.650147 159.220516 -48.028485 -170.415257 164.503651 -3.538009 -157.712414 -165.190418 -4.876486 -154.133242 162.624115 50.929035 -136.909532 -5.435778 -5.421513 0.582451 42.71954 29.191608 -35.941319 10.571294 15.013433 -6.865128 71.604289 50.678806 -44.68483 -173.123457 -66.297779 -137.614274 7.618634 25.712406 -9.365209 145.099706 -1.521107 178.650165 146.568858 45.89586 -175.076667 140.975762 -0.021062 138.018014 20.056908 -38.690903 23.960898 -180.0 75.749642 -0.0 -180.0 73.473292 -180.0 5.025459 -5.947284 123.870029 -1.319393 -7.283167 59.66918 -180.0 75.749642 -0.0 -180.0 73.473292 -180.0 5.864878 -4.414665 123.647879 14.394352 18.625466 49.322579
